<mxfile host="app.diagrams.net" modified="2024-05-18T00:03:54.867Z" agent="Mozilla/5.0 (Windows NT 10.0; Win64; x64) AppleWebKit/537.36 (KHTML, like Gecko) Chrome/124.0.0.0 Safari/537.36" etag="PRG89nklTCRn_Oca-IdC" version="24.4.4" type="device">
  <diagram name="Page-1" id="1C8Pr9xRdBFd5XVWoNzQ">
    <mxGraphModel dx="1909" dy="1027" grid="1" gridSize="10" guides="1" tooltips="1" connect="1" arrows="1" fold="1" page="1" pageScale="1" pageWidth="850" pageHeight="1100" math="0" shadow="0">
      <root>
        <mxCell id="0" />
        <mxCell id="1" parent="0" />
        <mxCell id="QlvwQTtcG7Hc50vCpq-f-1" value="" style="rounded=0;whiteSpace=wrap;html=1;fillColor=none;" parent="1" vertex="1">
          <mxGeometry x="150" y="110" width="1420" height="610" as="geometry" />
        </mxCell>
        <mxCell id="QlvwQTtcG7Hc50vCpq-f-4" value="" style="ellipse;html=1;shape=endState;fillColor=#000000;strokeColor=#000000;" parent="1" vertex="1">
          <mxGeometry x="1500" y="475" width="30" height="30" as="geometry" />
        </mxCell>
        <mxCell id="QlvwQTtcG7Hc50vCpq-f-5" style="edgeStyle=orthogonalEdgeStyle;rounded=0;orthogonalLoop=1;jettySize=auto;html=1;exitX=1;exitY=0.5;exitDx=0;exitDy=0;exitPerimeter=0;entryX=0;entryY=0.5;entryDx=0;entryDy=0;" parent="1" source="QlvwQTtcG7Hc50vCpq-f-6" target="QlvwQTtcG7Hc50vCpq-f-8" edge="1">
          <mxGeometry relative="1" as="geometry" />
        </mxCell>
        <mxCell id="QlvwQTtcG7Hc50vCpq-f-6" value="" style="verticalLabelPosition=bottom;verticalAlign=top;html=1;shape=mxgraph.flowchart.on-page_reference;fillColor=#000000;" parent="1" vertex="1">
          <mxGeometry x="190" y="385" width="30" height="30" as="geometry" />
        </mxCell>
        <mxCell id="QlvwQTtcG7Hc50vCpq-f-7" style="edgeStyle=orthogonalEdgeStyle;rounded=0;orthogonalLoop=1;jettySize=auto;html=1;exitX=1;exitY=0.5;exitDx=0;exitDy=0;entryX=0;entryY=0.5;entryDx=0;entryDy=0;" parent="1" source="QlvwQTtcG7Hc50vCpq-f-8" target="QlvwQTtcG7Hc50vCpq-f-18" edge="1">
          <mxGeometry relative="1" as="geometry" />
        </mxCell>
        <mxCell id="QlvwQTtcG7Hc50vCpq-f-8" value="Professor - Acessa&lt;div&gt;formulário de reposição de aula&lt;/div&gt;" style="rounded=1;whiteSpace=wrap;html=1;fillColor=#CCE5FF;" parent="1" vertex="1">
          <mxGeometry x="270" y="370" width="120" height="60" as="geometry" />
        </mxCell>
        <mxCell id="QlvwQTtcG7Hc50vCpq-f-9" value="Preencher &lt;br&gt;formulário" style="rounded=1;whiteSpace=wrap;html=1;fillColor=#CCE5FF;" parent="1" vertex="1">
          <mxGeometry x="450" y="370" width="120" height="60" as="geometry" />
        </mxCell>
        <mxCell id="QlvwQTtcG7Hc50vCpq-f-14" style="edgeStyle=orthogonalEdgeStyle;rounded=0;orthogonalLoop=1;jettySize=auto;html=1;exitX=1;exitY=0.5;exitDx=0;exitDy=0;entryX=0;entryY=0.5;entryDx=0;entryDy=0;" parent="1" source="QlvwQTtcG7Hc50vCpq-f-18" target="QlvwQTtcG7Hc50vCpq-f-21" edge="1">
          <mxGeometry relative="1" as="geometry">
            <mxPoint x="655" y="400" as="sourcePoint" />
            <mxPoint x="880" y="400" as="targetPoint" />
          </mxGeometry>
        </mxCell>
        <mxCell id="QlvwQTtcG7Hc50vCpq-f-18" value="Professor - Preenche&lt;br&gt;formulário" style="rounded=1;whiteSpace=wrap;html=1;fillColor=#CCE5FF;" parent="1" vertex="1">
          <mxGeometry x="450" y="370" width="120" height="60" as="geometry" />
        </mxCell>
        <mxCell id="QlvwQTtcG7Hc50vCpq-f-19" style="edgeStyle=orthogonalEdgeStyle;rounded=0;orthogonalLoop=1;jettySize=auto;html=1;exitX=1;exitY=0.5;exitDx=0;exitDy=0;entryX=0;entryY=0.5;entryDx=0;entryDy=0;" parent="1" source="QlvwQTtcG7Hc50vCpq-f-20" target="QlvwQTtcG7Hc50vCpq-f-4" edge="1">
          <mxGeometry relative="1" as="geometry" />
        </mxCell>
        <mxCell id="QlvwQTtcG7Hc50vCpq-f-20" value="Professor - Envia formulário para coordenador" style="rounded=1;whiteSpace=wrap;html=1;fillColor=#CCE5FF;arcSize=15;" parent="1" vertex="1">
          <mxGeometry x="1310" y="460" width="120" height="60" as="geometry" />
        </mxCell>
        <mxCell id="QlvwQTtcG7Hc50vCpq-f-21" value="Professor - Solicita Envio do Formulário" style="rounded=1;whiteSpace=wrap;html=1;fillColor=#CCE5FF;" parent="1" vertex="1">
          <mxGeometry x="630" y="370" width="120" height="60" as="geometry" />
        </mxCell>
        <mxCell id="QlvwQTtcG7Hc50vCpq-f-22" value="" style="edgeStyle=orthogonalEdgeStyle;rounded=0;orthogonalLoop=1;jettySize=auto;html=1;exitX=1;exitY=0.5;exitDx=0;exitDy=0;entryX=0;entryY=0.5;entryDx=0;entryDy=0;" parent="1" source="QlvwQTtcG7Hc50vCpq-f-21" target="QlvwQTtcG7Hc50vCpq-f-27" edge="1">
          <mxGeometry relative="1" as="geometry">
            <mxPoint x="1499" y="525" as="targetPoint" />
            <mxPoint x="1390" y="525" as="sourcePoint" />
          </mxGeometry>
        </mxCell>
        <mxCell id="QlvwQTtcG7Hc50vCpq-f-23" style="edgeStyle=orthogonalEdgeStyle;rounded=0;orthogonalLoop=1;jettySize=auto;html=1;exitX=1;exitY=0.5;exitDx=0;exitDy=0;entryX=0;entryY=0.5;entryDx=0;entryDy=0;" parent="1" source="QlvwQTtcG7Hc50vCpq-f-27" target="QlvwQTtcG7Hc50vCpq-f-29" edge="1">
          <mxGeometry relative="1" as="geometry">
            <mxPoint x="1270" y="720" as="targetPoint" />
          </mxGeometry>
        </mxCell>
        <mxCell id="QlvwQTtcG7Hc50vCpq-f-24" value="Todos os campos preenchidos" style="edgeLabel;html=1;align=center;verticalAlign=middle;resizable=0;points=[];" parent="QlvwQTtcG7Hc50vCpq-f-23" vertex="1" connectable="0">
          <mxGeometry x="-0.2508" y="2" relative="1" as="geometry">
            <mxPoint x="23" y="2" as="offset" />
          </mxGeometry>
        </mxCell>
        <mxCell id="QlvwQTtcG7Hc50vCpq-f-25" style="edgeStyle=orthogonalEdgeStyle;rounded=0;orthogonalLoop=1;jettySize=auto;html=1;exitX=0.5;exitY=0;exitDx=0;exitDy=0;entryX=1;entryY=0.5;entryDx=0;entryDy=0;" parent="1" source="QlvwQTtcG7Hc50vCpq-f-27" target="T1xjoRhCFsssPuC_Qp7n-3" edge="1">
          <mxGeometry relative="1" as="geometry">
            <mxPoint x="1215" y="300" as="targetPoint" />
            <Array as="points" />
          </mxGeometry>
        </mxCell>
        <mxCell id="QlvwQTtcG7Hc50vCpq-f-26" value="Há campos não preenchidos" style="edgeLabel;html=1;align=center;verticalAlign=middle;resizable=0;points=[];" parent="QlvwQTtcG7Hc50vCpq-f-25" vertex="1" connectable="0">
          <mxGeometry x="0.0305" relative="1" as="geometry">
            <mxPoint y="46" as="offset" />
          </mxGeometry>
        </mxCell>
        <mxCell id="QlvwQTtcG7Hc50vCpq-f-27" value="" style="rhombus;whiteSpace=wrap;html=1;" parent="1" vertex="1">
          <mxGeometry x="810" y="380" width="35" height="40" as="geometry" />
        </mxCell>
        <mxCell id="QlvwQTtcG7Hc50vCpq-f-28" style="edgeStyle=orthogonalEdgeStyle;rounded=0;orthogonalLoop=1;jettySize=auto;html=1;exitX=0.5;exitY=1;exitDx=0;exitDy=0;entryX=0.5;entryY=0;entryDx=0;entryDy=0;" parent="1" source="QlvwQTtcG7Hc50vCpq-f-29" target="QlvwQTtcG7Hc50vCpq-f-32" edge="1">
          <mxGeometry relative="1" as="geometry" />
        </mxCell>
        <mxCell id="QlvwQTtcG7Hc50vCpq-f-29" value="Professor - Revisa dados preenchidos" style="rounded=1;whiteSpace=wrap;html=1;fillColor=#CCE5FF;arcSize=15;" parent="1" vertex="1">
          <mxGeometry x="1040" y="370" width="120" height="60" as="geometry" />
        </mxCell>
        <mxCell id="QlvwQTtcG7Hc50vCpq-f-30" style="edgeStyle=orthogonalEdgeStyle;rounded=0;orthogonalLoop=1;jettySize=auto;html=1;exitX=1;exitY=0.5;exitDx=0;exitDy=0;entryX=0;entryY=0.5;entryDx=0;entryDy=0;" parent="1" source="QlvwQTtcG7Hc50vCpq-f-32" target="QlvwQTtcG7Hc50vCpq-f-20" edge="1">
          <mxGeometry relative="1" as="geometry">
            <mxPoint x="1712.5" y="710" as="targetPoint" />
          </mxGeometry>
        </mxCell>
        <mxCell id="QlvwQTtcG7Hc50vCpq-f-31" value="Os dados estão corretos" style="edgeLabel;html=1;align=center;verticalAlign=middle;resizable=0;points=[];" parent="QlvwQTtcG7Hc50vCpq-f-30" vertex="1" connectable="0">
          <mxGeometry x="-0.2434" y="-1" relative="1" as="geometry">
            <mxPoint x="23" y="-1" as="offset" />
          </mxGeometry>
        </mxCell>
        <mxCell id="QlvwQTtcG7Hc50vCpq-f-32" value="" style="rhombus;whiteSpace=wrap;html=1;" parent="1" vertex="1">
          <mxGeometry x="1082.5" y="470" width="35" height="40" as="geometry" />
        </mxCell>
        <mxCell id="QlvwQTtcG7Hc50vCpq-f-33" value="Professor - Corrige campos preenchidos incorretamente" style="rounded=1;whiteSpace=wrap;html=1;fillColor=#CCE5FF;arcSize=15;" parent="1" vertex="1">
          <mxGeometry x="1040" y="590" width="120" height="60" as="geometry" />
        </mxCell>
        <mxCell id="QlvwQTtcG7Hc50vCpq-f-39" style="edgeStyle=orthogonalEdgeStyle;rounded=0;orthogonalLoop=1;jettySize=auto;html=1;exitX=0.5;exitY=1;exitDx=0;exitDy=0;" parent="1" source="QlvwQTtcG7Hc50vCpq-f-32" target="QlvwQTtcG7Hc50vCpq-f-33" edge="1">
          <mxGeometry relative="1" as="geometry">
            <mxPoint x="1100.17" y="591.8400000000001" as="targetPoint" />
          </mxGeometry>
        </mxCell>
        <mxCell id="QlvwQTtcG7Hc50vCpq-f-40" value="Há dados incorretos" style="edgeLabel;html=1;align=center;verticalAlign=middle;resizable=0;points=[];" parent="QlvwQTtcG7Hc50vCpq-f-39" vertex="1" connectable="0">
          <mxGeometry x="-0.2476" y="-1" relative="1" as="geometry">
            <mxPoint x="1" y="9" as="offset" />
          </mxGeometry>
        </mxCell>
        <mxCell id="QlvwQTtcG7Hc50vCpq-f-41" style="edgeStyle=orthogonalEdgeStyle;rounded=0;orthogonalLoop=1;jettySize=auto;html=1;entryX=0.5;entryY=1;entryDx=0;entryDy=0;exitX=0.5;exitY=1;exitDx=0;exitDy=0;" parent="1" source="QlvwQTtcG7Hc50vCpq-f-33" target="QlvwQTtcG7Hc50vCpq-f-21" edge="1">
          <mxGeometry relative="1" as="geometry">
            <mxPoint x="1101.25875" y="819.8800000000001" as="sourcePoint" />
            <mxPoint x="1080" y="760" as="targetPoint" />
            <Array as="points">
              <mxPoint x="1100" y="680" />
              <mxPoint x="690" y="680" />
            </Array>
          </mxGeometry>
        </mxCell>
        <mxCell id="QlvwQTtcG7Hc50vCpq-f-47" value="&lt;font face=&quot;Helvetica&quot; style=&quot;font-size: 35px;&quot;&gt;&lt;b&gt;&lt;font style=&quot;font-size: 35px;&quot;&gt;Professor - Enviar&amp;nbsp;&lt;/font&gt;&lt;font style=&quot;font-size: 35px;&quot;&gt;Formulário &lt;/font&gt;&lt;font style=&quot;font-size: 35px;&quot;&gt;de Reposição de Aula&lt;/font&gt;&lt;/b&gt;&lt;/font&gt;" style="text;html=1;align=center;verticalAlign=middle;whiteSpace=wrap;rounded=0;" parent="1" vertex="1">
          <mxGeometry x="150" y="150" width="1420" height="30" as="geometry" />
        </mxCell>
        <mxCell id="T1xjoRhCFsssPuC_Qp7n-5" style="edgeStyle=orthogonalEdgeStyle;rounded=0;orthogonalLoop=1;jettySize=auto;html=1;exitX=0;exitY=0.5;exitDx=0;exitDy=0;entryX=0.5;entryY=0;entryDx=0;entryDy=0;" parent="1" source="T1xjoRhCFsssPuC_Qp7n-3" target="QlvwQTtcG7Hc50vCpq-f-18" edge="1">
          <mxGeometry relative="1" as="geometry" />
        </mxCell>
        <mxCell id="T1xjoRhCFsssPuC_Qp7n-3" value="Sistema - Exibe mensagem de erro" style="rounded=1;whiteSpace=wrap;html=1;fillColor=#CCE5FF;" parent="1" vertex="1">
          <mxGeometry x="630" y="250" width="120" height="60" as="geometry" />
        </mxCell>
      </root>
    </mxGraphModel>
  </diagram>
</mxfile>
